  0
SECTION
  2
HEADER
  9
$ACADVER
  1
AC1018
  9
$ACADMAINTVER
 70
     0
  9
$DWGCODEPAGE
  3
ANSI_1252
  9
$INSBASE
 10
0.0
 20
0.0
 30
0.0
  9
$EXTMIN
 10
-122.3110391
 20
47.6044595
 30
0.0
  9
$EXTMAX
 10
-122.3090908
 20
47.6060527
 30
0.0
  9
$LIMMIN
 10
0.0
 20
0.0
  9
$LIMMAX
 10
12.0
 20
9.0
  9
$ORTHOMODE
 70
     0
  9
$REGENMODE
 70
     1
  9
$FILLMODE
 70
     1
  9
$QTEXTMODE
 70
     0
  9
$MIRRTEXT
 70
     1
  9
$LTSCALE
 40
1.0
  9
$ATTMODE
 70
     1
  9
$TEXTSIZE
 40
0.2
  9
$TRACEWID
 40
0.05
  9
$TEXTSTYLE
  7
Standard
  9
$CLAYER
  8
0
  9
$CELTYPE
  6
ByLayer
  9
$CECOLOR
 62
   256
  9
$CELTSCALE
 40
1.0
  9
$DISPSILH
 70
     0
  9
$DIMSCALE
 40
1.0
  9
$DIMASZ
 40
0.18
  9
$DIMEXO
 40
0.0625
  9
$DIMDLI
 40
0.38
  9
$DIMRND
 40
0.0
  9
$DIMDLE
 40
0.0
  9
$DIMEXE
 40
0.18
  9
$DIMTP
 40
0.0
  9
$DIMTM
 40
0.0
  9
$DIMTXT
 40
0.18
  9
$DIMCEN
 40
0.09
  9
$DIMTSZ
 40
0.0
  9
$DIMTOL
 70
     0
  9
$DIMLIM
 70
     0
  9
$DIMTIH
 70
     1
  9
$DIMTOH
 70
     1
  9
$DIMSE1
 70
     0
  9
$DIMSE2
 70
     0
  9
$DIMTAD
 70
     0
  9
$DIMZIN
 70
     0
  9
$DIMBLK
  1

  9
$DIMASO
 70
     1
  9
$DIMSHO
 70
     1
  9
$DIMPOST
  1

  9
$DIMAPOST
  1

  9
$DIMALT
 70
     0
  9
$DIMALTD
 70
     2
  9
$DIMALTF
 40
25.4
  9
$DIMLFAC
 40
1.0
  9
$DIMTOFL
 70
     0
  9
$DIMTVP
 40
0.0
  9
$DIMTIX
 70
     0
  9
$DIMSOXD
 70
     0
  9
$DIMSAH
 70
     0
  9
$DIMBLK1
  1

  9
$DIMBLK2
  1

  9
$DIMSTYLE
  2
Standard
  9
$DIMCLRD
 70
     0
  9
$DIMCLRE
 70
     0
  9
$DIMCLRT
 70
     0
  9
$DIMTFAC
 40
1.0
  9
$DIMGAP
 40
0.09
  9
$DIMJUST
 70
     0
  9
$DIMSD1
 70
     0
  9
$DIMSD2
 70
     0
  9
$DIMTOLJ
 70
     1
  9
$DIMTZIN
 70
     0
  9
$DIMALTZ
 70
     0
  9
$DIMALTTZ
 70
     0
  9
$DIMUPT
 70
     0
  9
$DIMDEC
 70
     4
  9
$DIMTDEC
 70
     4
  9
$DIMALTU
 70
     2
  9
$DIMALTTD
 70
     2
  9
$DIMTXSTY
  7
Standard
  9
$DIMAUNIT
 70
     0
  9
$DIMADEC
 70
     0
  9
$DIMALTRND
 40
0.0
  9
$DIMAZIN
 70
     0
  9
$DIMDSEP
 70
    46
  9
$DIMATFIT
 70
     3
  9
$DIMFRAC
 70
     0
  9
$DIMLDRBLK
  1

  9
$DIMLUNIT
 70
     2
  9
$DIMLWD
 70
    -2
  9
$DIMLWE
 70
    -2
  9
$DIMTMOVE
 70
     0
  9
$LUNITS
 70
     2
  9
$LUPREC
 70
     4
  9
$SKETCHINC
 40
0.1
  9
$FILLETRAD
 40
0.5
  9
$AUNITS
 70
     0
  9
$AUPREC
 70
     0
  9
$MENU
  1
.
  9
$ELEVATION
 40
0.0
  9
$PELEVATION
 40
0.0
  9
$THICKNESS
 40
0.0
  9
$LIMCHECK
 70
     0
  9
$CHAMFERA
 40
0.5
  9
$CHAMFERB
 40
0.5
  9
$CHAMFERC
 40
1.0
  9
$CHAMFERD
 40
0.0
  9
$SKPOLY
 70
     0
  9
$TDCREATE
 40
2455343.56230316
  9
$TDUCREATE
 40
2455343.728969826
  9
$TDUPDATE
 40
2455343.562303171
  9
$TDUUPDATE
 40
2455343.728969838
  9
$TDINDWG
 40
0.0000000116
  9
$TDUSRTIMER
 40
0.0000000116
  9
$USRTIMER
 70
     1
  9
$ANGBASE
 50
0.0
  9
$ANGDIR
 70
     0
  9
$PDMODE
 70
     0
  9
$PDSIZE
 40
0.0
  9
$PLINEWID
 40
0.0
  9
$SPLFRAME
 70
     0
  9
$SPLINETYPE
 70
     6
  9
$SPLINESEGS
 70
     8
  9
$HANDSEED
  5
00020026
  9
$SURFTAB1
 70
     6
  9
$SURFTAB2
 70
     6
  9
$SURFTYPE
 70
     6
  9
$SURFU
 70
     6
  9
$SURFV
 70
     6
  9
$UCSBASE
  2

  9
$UCSNAME
  2

  9
$UCSORG
 10
0.0
 20
0.0
 30
0.0
  9
$UCSXDIR
 10
1.0
 20
0.0
 30
0.0
  9
$UCSYDIR
 10
0.0
 20
1.0
 30
0.0
  9
$UCSORTHOREF
  2

  9
$UCSORTHOVIEW
 70
     0
  9
$UCSORGTOP
 10
0.0
 20
0.0
 30
0.0
  9
$UCSORGBOTTOM
 10
0.0
 20
0.0
 30
0.0
  9
$UCSORGLEFT
 10
0.0
 20
0.0
 30
0.0
  9
$UCSORGRIGHT
 10
0.0
 20
0.0
 30
0.0
  9
$UCSORGFRONT
 10
0.0
 20
0.0
 30
0.0
  9
$UCSORGBACK
 10
0.0
 20
0.0
 30
0.0
  9
$PUCSBASE
  2

  9
$PUCSNAME
  2

  9
$PUCSORG
 10
0.0
 20
0.0
 30
0.0
  9
$PUCSXDIR
 10
1.0
 20
0.0
 30
0.0
  9
$PUCSYDIR
 10
0.0
 20
1.0
 30
0.0
  9
$PUCSORTHOREF
  2

  9
$PUCSORTHOVIEW
 70
     0
  9
$PUCSORGTOP
 10
0.0
 20
0.0
 30
0.0
  9
$PUCSORGBOTTOM
 10
0.0
 20
0.0
 30
0.0
  9
$PUCSORGLEFT
 10
0.0
 20
0.0
 30
0.0
  9
$PUCSORGRIGHT
 10
0.0
 20
0.0
 30
0.0
  9
$PUCSORGFRONT
 10
0.0
 20
0.0
 30
0.0
  9
$PUCSORGBACK
 10
0.0
 20
0.0
 30
0.0
  9
$USERI1
 70
     0
  9
$USERI2
 70
     0
  9
$USERI3
 70
     0
  9
$USERI4
 70
     0
  9
$USERI5
 70
     0
  9
$USERR1
 40
0.0
  9
$USERR2
 40
0.0
  9
$USERR3
 40
0.0
  9
$USERR4
 40
0.0
  9
$USERR5
 40
0.0
  9
$WORLDVIEW
 70
     1
  9
$SHADEDGE
 70
     3
  9
$SHADEDIF
 70
    70
  9
$TILEMODE
 70
     1
  9
$MAXACTVP
 70
    64
  9
$PINSBASE
 10
0.0
 20
0.0
 30
0.0
  9
$PLIMCHECK
 70
     0
  9
$PEXTMIN
 10
1.000000000000000E+20
 20
1.000000000000000E+20
 30
1.000000000000000E+20
  9
$PEXTMAX
 10
-1.000000000000000E+20
 20
-1.000000000000000E+20
 30
-1.000000000000000E+20
  9
$PLIMMIN
 10
0.0
 20
0.0
  9
$PLIMMAX
 10
12.0
 20
9.0
  9
$UNITMODE
 70
     0
  9
$VISRETAIN
 70
     1
  9
$PLINEGEN
 70
     0
  9
$PSLTSCALE
 70
     1
  9
$TREEDEPTH
 70
  3020
  9
$CMLSTYLE
  2
Standard
  9
$CMLJUST
 70
     0
  9
$CMLSCALE
 40
1.0
  9
$PROXYGRAPHICS
 70
     1
  9
$MEASUREMENT
 70
     0
  9
$CELWEIGHT
370
    -1
  9
$ENDCAPS
280
     0
  9
$JOINSTYLE
280
     0
  9
$LWDISPLAY
290
     0
  9
$INSUNITS
 70
     1
  9
$HYPERLINKBASE
  1

  9
$STYLESHEET
  1

  9
$XEDIT
290
     1
  9
$CEPSNTYPE
380
     0
  9
$PSTYLEMODE
290
     1
  9
$FINGERPRINTGUID
  2
{E7F7769E-AACA-40AB-9EF3-61BBAFBCBA26}
  9
$VERSIONGUID
  2
{FAEB1C32-E019-11D5-929B-00C0DF256EC4}
  9
$EXTNAMES
290
     1
  9
$PSVPSCALE
 40
0.0
  9
$OLESTARTUP
290
     0
  9
$SORTENTS
280
   127
  9
$INDEXCTL
280
     0
  9
$HIDETEXT
280
     1
  9
$XCLIPFRAME
290
     0
  9
$HALOGAP
280
     0
  9
$OBSCOLOR
 70
   257
  9
$OBSLTYPE
280
     0
  9
$INTERSECTIONDISPLAY
280
     0
  9
$INTERSECTIONCOLOR
 70
   257
  9
$DIMASSOC
280
     2
  9
$PROJECTNAME
  1

  0
ENDSEC
  0
SECTION
  2
CLASSES
  0
CLASS
  1
ACDBDICTIONARYWDFLT
  2
AcDbDictionaryWithDefault
  3
ObjectDBX Classes
 90
        0
 91
        4
280
     0
281
     0
  0
CLASS
  1
VISUALSTYLE
  2
AcDbVisualStyle
  3
ObjectDBX Classes
 90
     4095
 91
        4
280
     0
281
     0
  0
ENDSEC
  0
SECTION
  2
TABLES
  0
TABLE
  2
VPORT
  5
8
330
0
100
AcDbSymbolTable
 70
     1
  0
VPORT
  5
29
330
8
100
AcDbSymbolTableRecord
100
AcDbViewportTableRecord
  2
*Active
 70
     0
 10
0.0
 20
0.0
 11
1.0
 21
1.0
 12
80.25
 22
106.4409457059851
 13
0.0
 23
0.0
 14
0.5
 24
0.5
 15
0.5
 25
0.5
 16
0.0
 26
0.0
 36
1.0
 17
0.0
 27
0.0
 37
0.0
 40
113.3818914119703
 41
0.8863849310366128
 42
50.0
 43
0.0
 44
0.0
 50
0.0
 51
0.0
 71
     0
 72
  1000
 73
     1
 74
     3
 75
     0
 76
     0
 77
     0
 78
     0
281
     0
 65
     1
110
0.0
120
0.0
130
0.0
111
1.0
121
0.0
131
0.0
112
0.0
122
1.0
132
0.0
 79
     0
146
0.0
  0
ENDTAB
  0
TABLE
  2
LTYPE
  5
5
330
0
100
AcDbSymbolTable
 70
     1
  0
LTYPE
  5
14
330
5
100
AcDbSymbolTableRecord
100
AcDbLinetypeTableRecord
  2
ByBlock
 70
     0
  3

 72
    65
 73
     0
 40
0.0
  0
LTYPE
  5
15
330
5
100
AcDbSymbolTableRecord
100
AcDbLinetypeTableRecord
  2
ByLayer
 70
     0
  3

 72
    65
 73
     0
 40
0.0
  0
LTYPE
  5
16
330
5
100
AcDbSymbolTableRecord
100
AcDbLinetypeTableRecord
  2
Continuous
 70
     0
  3
Solid line
 72
    65
 73
     0
 40
0.0
  0
ENDTAB
  0
TABLE
  2
LAYER
  5
2
330
0
100
AcDbSymbolTable
 70
     1
  0
LAYER
  5
10
330
2
100
AcDbSymbolTableRecord
100
AcDbLayerTableRecord
  2
0
 70
     0
 62
     7
  6
Continuous
370
    -3
390
F
  0
ENDTAB
  0
TABLE
  2
STYLE
  5
3
330
0
100
AcDbSymbolTable
 70
     1
  0
STYLE
  5
11
330
3
100
AcDbSymbolTableRecord
100
AcDbTextStyleTableRecord
  2
Standard
 70
     0
 40
0.0
 41
1.0
 50
0.0
 71
     0
 42
0.2
  3
txt
  4

  0
ENDTAB
  0
TABLE
  2
VIEW
  5
6
330
0
100
AcDbSymbolTable
 70
     0
  0
ENDTAB
  0
TABLE
  2
UCS
  5
7
330
0
100
AcDbSymbolTable
 70
     0
  0
ENDTAB
  0
TABLE
  2
APPID
  5
9
330
0
100
AcDbSymbolTable
 70
     1
  0
APPID
  5
12
330
9
100
AcDbSymbolTableRecord
100
AcDbRegAppTableRecord
  2
ACAD
 70
     0
  0
ENDTAB
  0
TABLE
  2
DIMSTYLE
  5
A
330
0
100
AcDbSymbolTable
 70
     1
100
AcDbDimStyleTable
  0
DIMSTYLE
105
27
330
A
100
AcDbSymbolTableRecord
100
AcDbDimStyleTableRecord
  2
Standard
 70
     0
340
11
  0
ENDTAB
  0
TABLE
  2
BLOCK_RECORD
  5
1
330
0
100
AcDbSymbolTable
 70
     1
  0
BLOCK_RECORD
  5
1F
330
1
100
AcDbSymbolTableRecord
100
AcDbBlockTableRecord
  2
*Model_Space
340
22
  0
BLOCK_RECORD
  5
1B
330
1
100
AcDbSymbolTableRecord
100
AcDbBlockTableRecord
  2
*Paper_Space
340
1E
  0
BLOCK_RECORD
  5
23
330
1
100
AcDbSymbolTableRecord
100
AcDbBlockTableRecord
  2
*Paper_Space0
340
26
  0
ENDTAB
  0
ENDSEC
  0
SECTION
  2
BLOCKS
  0
BLOCK
  5
20
330
1F
100
AcDbEntity
  8
0
100
AcDbBlockBegin
  2
*Model_Space
 70
     0
 10
0.0
 20
0.0
 30
0.0
  3
*Model_Space
  1

  0
ENDBLK
  5
21
330
1F
100
AcDbEntity
  8
0
100
AcDbBlockEnd
  0
BLOCK
  5
1C
330
1B
100
AcDbEntity
 67
     1
  8
0
100
AcDbBlockBegin
  2
*Paper_Space
 70
     0
 10
0.0
 20
0.0
 30
0.0
  3
*Paper_Space
  1

  0
ENDBLK
  5
1D
330
1B
100
AcDbEntity
 67
     1
  8
0
100
AcDbBlockEnd
  0
BLOCK
  5
24
330
23
100
AcDbEntity
  8
0
100
AcDbBlockBegin
  2
*Paper_Space0
 70
     0
 10
0.0
 20
0.0
 30
0.0
  3
*Paper_Space0
  1

  0
ENDBLK
  5
25
330
23
100
AcDbEntity
  8
0
100
AcDbBlockEnd
  0
ENDSEC
  0
SECTION
  2
ENTITIES
  0
HATCH
  5
20000
  8
0
100
AcDbEntity
100
AcDbHatch
 10
0
 20
0
 30
0
210
0
220
0
230
1
  2
SOLID
 70
1
 71
0
 91
1
 92
2
 72
0
 73
1
 93
5
 10
-122.3108724
 20
47.6051793
 10
-122.3108722
 20
47.6051437
 10
-122.3108139
 20
47.6051439
 10
-122.3108142
 20
47.6051795
 10
-122.3108724
 20
47.6051793
 97
0
 75
0
 76
1
 98
0
  0
HATCH
  5
20001
  8
0
100
AcDbEntity
100
AcDbHatch
 10
0
 20
0
 30
0
210
0
220
0
230
1
  2
SOLID
 70
1
 71
0
 91
1
 92
2
 72
0
 73
1
 93
7
 10
-122.3110391
 20
47.6058692
 10
-122.310915
 20
47.6058689
 10
-122.3109147
 20
47.6059182
 10
-122.3106523
 20
47.6059177
 10
-122.3106519
 20
47.6060264
 10
-122.3110384
 20
47.6060271
 10
-122.3110391
 20
47.6058692
 97
0
 75
0
 76
1
 98
0
  0
HATCH
  5
20002
  8
0
100
AcDbEntity
100
AcDbHatch
 10
0
 20
0
 30
0
210
0
220
0
230
1
  2
SOLID
 70
1
 71
0
 91
1
 92
2
 72
0
 73
1
 93
9
 10
-122.3105586
 20
47.6046464
 10
-122.3105569
 20
47.6045035
 10
-122.3104874
 20
47.6045039
 10
-122.3104873
 20
47.6044894
 10
-122.3104318
 20
47.6044897
 10
-122.310432
 20
47.6045041
 10
-122.310422
 20
47.6045041
 10
-122.3104236
 20
47.6046471
 10
-122.3105586
 20
47.6046464
 97
0
 75
0
 76
1
 98
0
  0
HATCH
  5
20003
  8
0
100
AcDbEntity
100
AcDbHatch
 10
0
 20
0
 30
0
210
0
220
0
230
1
  2
SOLID
 70
1
 71
0
 91
1
 92
2
 72
0
 73
1
 93
7
 10
-122.3107573
 20
47.6047847
 10
-122.3107572
 20
47.6047344
 10
-122.3107377
 20
47.6047344
 10
-122.3107377
 20
47.6047106
 10
-122.3104646
 20
47.6047107
 10
-122.3104647
 20
47.6047849
 10
-122.3107573
 20
47.6047847
 97
0
 75
0
 76
1
 98
0
  0
HATCH
  5
20004
  8
0
100
AcDbEntity
100
AcDbHatch
 10
0
 20
0
 30
0
210
0
220
0
230
1
  2
SOLID
 70
1
 71
0
 91
1
 92
2
 72
0
 73
1
 93
11
 10
-122.3107383
 20
47.6048324
 10
-122.3106791
 20
47.6048322
 10
-122.3106791
 20
47.6048251
 10
-122.3106457
 20
47.6048251
 10
-122.3106457
 20
47.6048311
 10
-122.3104842
 20
47.6048307
 10
-122.3104839
 20
47.6048993
 10
-122.3106401
 20
47.6048997
 10
-122.3106402
 20
47.6048819
 10
-122.310738
 20
47.6048821
 10
-122.3107383
 20
47.6048324
 97
0
 75
0
 76
1
 98
0
  0
HATCH
  5
20005
  8
0
100
AcDbEntity
100
AcDbHatch
 10
0
 20
0
 30
0
210
0
220
0
230
1
  2
SOLID
 70
1
 71
0
 91
1
 92
2
 72
0
 73
1
 93
15
 10
-122.3107089
 20
47.6049443
 10
-122.3106333
 20
47.6049436
 10
-122.3106332
 20
47.6049499
 10
-122.3105859
 20
47.6049495
 10
-122.310586
 20
47.6049464
 10
-122.3105217
 20
47.6049458
 10
-122.3105216
 20
47.6049503
 10
-122.3104754
 20
47.6049499
 10
-122.3104741
 20
47.6050239
 10
-122.3105901
 20
47.6050248
 10
-122.31059
 20
47.6050298
 10
-122.3106811
 20
47.6050306
 10
-122.3106816
 20
47.6050024
 10
-122.3107078
 20
47.6050026
 10
-122.3107089
 20
47.6049443
 97
0
 75
0
 76
1
 98
0
  0
HATCH
  5
20006
  8
0
100
AcDbEntity
100
AcDbHatch
 10
0
 20
0
 30
0
210
0
220
0
230
1
  2
SOLID
 70
1
 71
0
 91
1
 92
2
 72
0
 73
1
 93
11
 10
-122.3107153
 20
47.6051192
 10
-122.3107146
 20
47.6050738
 10
-122.3106798
 20
47.6050741
 10
-122.3106796
 20
47.6050546
 10
-122.3105642
 20
47.6050554
 10
-122.3105642
 20
47.6050608
 10
-122.3104701
 20
47.6050614
 10
-122.3104713
 20
47.6051395
 10
-122.3106771
 20
47.605138
 10
-122.3106768
 20
47.6051195
 10
-122.3107153
 20
47.6051192
 97
0
 75
0
 76
1
 98
0
  0
HATCH
  5
20007
  8
0
100
AcDbEntity
100
AcDbHatch
 10
0
 20
0
 30
0
210
0
220
0
230
1
  2
SOLID
 70
1
 71
0
 91
1
 92
2
 72
0
 73
1
 93
9
 10
-122.3100604
 20
47.6045941
 10
-122.3100592
 20
47.6045198
 10
-122.3100504
 20
47.6045199
 10
-122.3100499
 20
47.6044882
 10
-122.3099441
 20
47.604489
 10
-122.3099463
 20
47.604632
 10
-122.3100483
 20
47.6046313
 10
-122.3100478
 20
47.6045942
 10
-122.3100604
 20
47.6045941
 97
0
 75
0
 76
1
 98
0
  0
HATCH
  5
20008
  8
0
100
AcDbEntity
100
AcDbHatch
 10
0
 20
0
 30
0
210
0
220
0
230
1
  2
SOLID
 70
1
 71
0
 91
1
 92
2
 72
0
 73
1
 93
17
 10
-122.3099762
 20
47.6047995
 10
-122.3099755
 20
47.6047305
 10
-122.3097423
 20
47.6047314
 10
-122.3097426
 20
47.6047574
 10
-122.3097124
 20
47.6047576
 10
-122.3097128
 20
47.6048085
 10
-122.3097461
 20
47.6048083
 10
-122.309746
 20
47.6048048
 10
-122.309814
 20
47.6048045
 10
-122.3098141
 20
47.60481
 10
-122.3098908
 20
47.6048097
 10
-122.3098907
 20
47.6047988
 10
-122.3099204
 20
47.6047987
 10
-122.3099204
 20
47.6048035
 10
-122.309956
 20
47.6048033
 10
-122.3099559
 20
47.6047996
 10
-122.3099762
 20
47.6047995
 97
0
 75
0
 76
1
 98
0
  0
HATCH
  5
20009
  8
0
100
AcDbEntity
100
AcDbHatch
 10
0
 20
0
 30
0
210
0
220
0
230
1
  2
SOLID
 70
1
 71
0
 91
1
 92
2
 72
0
 73
1
 93
9
 10
-122.3097482
 20
47.6045447
 10
-122.3097478
 20
47.604466
 10
-122.3096958
 20
47.6044661
 10
-122.3096958
 20
47.6044595
 10
-122.3095777
 20
47.6044597
 10
-122.3095778
 20
47.6044664
 10
-122.3095251
 20
47.6044665
 10
-122.3095254
 20
47.6045452
 10
-122.3097482
 20
47.6045447
 97
0
 75
0
 76
1
 98
0
  0
HATCH
  5
2000A
  8
0
100
AcDbEntity
100
AcDbHatch
 10
0
 20
0
 30
0
210
0
220
0
230
1
  2
SOLID
 70
1
 71
0
 91
1
 92
2
 72
0
 73
1
 93
11
 10
-122.3099931
 20
47.604831
 10
-122.3097915
 20
47.6048299
 10
-122.3097909
 20
47.6048826
 10
-122.3098658
 20
47.6048829
 10
-122.3098655
 20
47.6049027
 10
-122.3099278
 20
47.604903
 10
-122.3099278
 20
47.604899
 10
-122.3099834
 20
47.6048993
 10
-122.3099837
 20
47.6048741
 10
-122.3099926
 20
47.6048741
 10
-122.3099931
 20
47.604831
 97
0
 75
0
 76
1
 98
0
  0
HATCH
  5
2000B
  8
0
100
AcDbEntity
100
AcDbHatch
 10
0
 20
0
 30
0
210
0
220
0
230
1
  2
SOLID
 70
1
 71
0
 91
1
 92
2
 72
0
 73
1
 93
9
 10
-122.3100042
 20
47.6049593
 10
-122.3100039
 20
47.604932
 10
-122.3099854
 20
47.6049321
 10
-122.3099854
 20
47.6049293
 10
-122.3098197
 20
47.6049302
 10
-122.3098206
 20
47.6050074
 10
-122.3099854
 20
47.6050065
 10
-122.3099848
 20
47.6049594
 10
-122.3100042
 20
47.6049593
 97
0
 75
0
 76
1
 98
0
  0
HATCH
  5
2000C
  8
0
100
AcDbEntity
100
AcDbHatch
 10
0
 20
0
 30
0
210
0
220
0
230
1
  2
SOLID
 70
1
 71
0
 91
1
 92
2
 72
0
 73
1
 93
9
 10
-122.3099791
 20
47.6051319
 10
-122.3099783
 20
47.605051
 10
-122.3098383
 20
47.6050516
 10
-122.3098387
 20
47.6050879
 10
-122.3097981
 20
47.6050881
 10
-122.3097984
 20
47.6051222
 10
-122.309837
 20
47.605122
 10
-122.3098371
 20
47.6051325
 10
-122.3099791
 20
47.6051319
 97
0
 75
0
 76
1
 98
0
  0
HATCH
  5
2000D
  8
0
100
AcDbEntity
100
AcDbHatch
 10
0
 20
0
 30
0
210
0
220
0
230
1
  2
SOLID
 70
1
 71
0
 91
1
 92
2
 72
0
 73
1
 93
13
 10
-122.3093614
 20
47.6045745
 10
-122.3093611
 20
47.604515
 10
-122.3093504
 20
47.604515
 10
-122.3093502
 20
47.6044834
 10
-122.3092025
 20
47.6044837
 10
-122.3092027
 20
47.6045243
 10
-122.3091804
 20
47.6045243
 10
-122.3091807
 20
47.6045751
 10
-122.3091964
 20
47.604575
 10
-122.3091966
 20
47.6046222
 10
-122.3093502
 20
47.6046218
 10
-122.3093499
 20
47.6045745
 10
-122.3093614
 20
47.6045745
 97
0
 75
0
 76
1
 98
0
  0
HATCH
  5
2000E
  8
0
100
AcDbEntity
100
AcDbHatch
 10
0
 20
0
 30
0
210
0
220
0
230
1
  2
SOLID
 70
1
 71
0
 91
1
 92
2
 72
0
 73
1
 93
7
 10
-122.3094452
 20
47.6046141
 10
-122.3093602
 20
47.6046132
 10
-122.3093594
 20
47.604647
 10
-122.309344
 20
47.6046469
 10
-122.3093431
 20
47.6046834
 10
-122.3094436
 20
47.6046845
 10
-122.3094452
 20
47.6046141
 97
0
 75
0
 76
1
 98
0
  0
HATCH
  5
2000F
  8
0
100
AcDbEntity
100
AcDbHatch
 10
0
 20
0
 30
0
210
0
220
0
230
1
  2
SOLID
 70
1
 71
0
 91
1
 92
2
 72
0
 73
1
 93
15
 10
-122.3094582
 20
47.604785
 10
-122.309458
 20
47.6047569
 10
-122.3094273
 20
47.604757
 10
-122.3094273
 20
47.6047515
 10
-122.3093875
 20
47.6047515
 10
-122.3093873
 20
47.6046995
 10
-122.3091921
 20
47.6046998
 10
-122.3091922
 20
47.6047345
 10
-122.3091675
 20
47.6047345
 10
-122.3091678
 20
47.6048009
 10
-122.3093877
 20
47.6048005
 10
-122.3093876
 20
47.6047948
 10
-122.3094259
 20
47.6047947
 10
-122.3094258
 20
47.604785
 10
-122.3094582
 20
47.604785
 97
0
 75
0
 76
1
 98
0
  0
HATCH
  5
20010
  8
0
100
AcDbEntity
100
AcDbHatch
 10
0
 20
0
 30
0
210
0
220
0
230
1
  2
SOLID
 70
1
 71
0
 91
1
 92
2
 72
0
 73
1
 93
15
 10
-122.3094332
 20
47.604896
 10
-122.309433
 20
47.6048706
 10
-122.3094203
 20
47.6048706
 10
-122.30942
 20
47.6048148
 10
-122.3092221
 20
47.6048154
 10
-122.3092225
 20
47.604898
 10
-122.3090908
 20
47.6048983
 10
-122.3090909
 20
47.6049157
 10
-122.3092622
 20
47.6049153
 10
-122.3092621
 20
47.6049104
 10
-122.3092818
 20
47.6049104
 10
-122.3092818
 20
47.6049081
 10
-122.3094194
 20
47.6049077
 10
-122.3094193
 20
47.6048961
 10
-122.3094332
 20
47.604896
 97
0
 75
0
 76
1
 98
0
  0
HATCH
  5
20011
  8
0
100
AcDbEntity
100
AcDbHatch
 10
0
 20
0
 30
0
210
0
220
0
230
1
  2
SOLID
 70
1
 71
0
 91
1
 92
2
 72
0
 73
1
 93
13
 10
-122.3095036
 20
47.6049272
 10
-122.3092271
 20
47.6049254
 10
-122.309227
 20
47.6049305
 10
-122.3092125
 20
47.6049304
 10
-122.3092121
 20
47.6049561
 10
-122.3092267
 20
47.6049562
 10
-122.3092259
 20
47.6050141
 10
-122.3092488
 20
47.6050143
 10
-122.3092487
 20
47.6050187
 10
-122.3094251
 20
47.6050198
 10
-122.3094257
 20
47.6049735
 10
-122.309503
 20
47.6049739
 10
-122.3095036
 20
47.6049272
 97
0
 75
0
 76
1
 98
0
  0
HATCH
  5
20012
  8
0
100
AcDbEntity
100
AcDbHatch
 10
0
 20
0
 30
0
210
0
220
0
230
1
  2
SOLID
 70
1
 71
0
 91
1
 92
2
 72
0
 73
1
 93
19
 10
-122.3094478
 20
47.6050425
 10
-122.3093438
 20
47.605042
 10
-122.309344
 20
47.605029
 10
-122.3092015
 20
47.6050283
 10
-122.3092014
 20
47.6050328
 10
-122.3091886
 20
47.6050327
 10
-122.3091883
 20
47.6050559
 10
-122.3091776
 20
47.6050559
 10
-122.3091771
 20
47.6051035
 10
-122.3091861
 20
47.6051036
 10
-122.3091858
 20
47.605127
 10
-122.3092016
 20
47.605127
 10
-122.3092015
 20
47.6051324
 10
-122.3093598
 20
47.6051333
 10
-122.3093599
 20
47.6051186
 10
-122.3093935
 20
47.6051188
 10
-122.3093939
 20
47.6050794
 10
-122.3094474
 20
47.6050797
 10
-122.3094478
 20
47.6050425
 97
0
 75
0
 76
1
 98
0
  0
HATCH
  5
20013
  8
0
100
AcDbEntity
100
AcDbHatch
 10
0
 20
0
 30
0
210
0
220
0
230
1
  2
SOLID
 70
1
 71
0
 91
1
 92
2
 72
0
 73
1
 93
15
 10
-122.3107449
 20
47.6052325
 10
-122.3107436
 20
47.6051871
 10
-122.3106744
 20
47.605188
 10
-122.3106739
 20
47.605169
 10
-122.3106372
 20
47.6051694
 10
-122.3106368
 20
47.6051584
 10
-122.3105701
 20
47.6051592
 10
-122.3105704
 20
47.6051715
 10
-122.3105
 20
47.6051724
 10
-122.3105017
 20
47.6052299
 10
-122.3105697
 20
47.605229
 10
-122.3105701
 20
47.6052434
 10
-122.3106762
 20
47.605242
 10
-122.310676
 20
47.6052334
 10
-122.3107449
 20
47.6052325
 97
0
 75
0
 76
1
 98
0
  0
HATCH
  5
20014
  8
0
100
AcDbEntity
100
AcDbHatch
 10
0
 20
0
 30
0
210
0
220
0
230
1
  2
SOLID
 70
1
 71
0
 91
1
 92
2
 72
0
 73
1
 93
13
 10
-122.3106856
 20
47.6054688
 10
-122.3106842
 20
47.6053916
 10
-122.3106558
 20
47.6053919
 10
-122.3106554
 20
47.6053703
 10
-122.3106223
 20
47.6053705
 10
-122.3106226
 20
47.6053855
 10
-122.3105583
 20
47.6053861
 10
-122.3105585
 20
47.6053913
 10
-122.3104913
 20
47.6053919
 10
-122.3104922
 20
47.605437
 10
-122.3105026
 20
47.6054369
 10
-122.3105032
 20
47.6054703
 10
-122.3106856
 20
47.6054688
 97
0
 75
0
 76
1
 98
0
  0
HATCH
  5
20015
  8
0
100
AcDbEntity
100
AcDbHatch
 10
0
 20
0
 30
0
210
0
220
0
230
1
  2
SOLID
 70
1
 71
0
 91
1
 92
2
 72
0
 73
1
 93
11
 10
-122.3107537
 20
47.6056898
 10
-122.310753
 20
47.6056493
 10
-122.3107156
 20
47.6056496
 10
-122.3107151
 20
47.6056195
 10
-122.3106972
 20
47.6056197
 10
-122.3106968
 20
47.6055995
 10
-122.3104882
 20
47.6056012
 10
-122.3104889
 20
47.6056441
 10
-122.3105088
 20
47.605644
 10
-122.3105097
 20
47.6056917
 10
-122.3107537
 20
47.6056898
 97
0
 75
0
 76
1
 98
0
  0
HATCH
  5
20016
  8
0
100
AcDbEntity
100
AcDbHatch
 10
0
 20
0
 30
0
210
0
220
0
230
1
  2
SOLID
 70
1
 71
0
 91
1
 92
2
 72
0
 73
1
 93
9
 10
-122.3107362
 20
47.6055694
 10
-122.3107355
 20
47.6055005
 10
-122.3106775
 20
47.6055007
 10
-122.3106774
 20
47.6054932
 10
-122.3104793
 20
47.6054941
 10
-122.3104802
 20
47.6055814
 10
-122.3106763
 20
47.6055805
 10
-122.3106762
 20
47.6055697
 10
-122.3107362
 20
47.6055694
 97
0
 75
0
 76
1
 98
0
  0
HATCH
  5
20017
  8
0
100
AcDbEntity
100
AcDbHatch
 10
0
 20
0
 30
0
210
0
220
0
230
1
  2
SOLID
 70
1
 71
0
 91
1
 92
2
 72
0
 73
1
 93
15
 10
-122.310708
 20
47.6057964
 10
-122.3107049
 20
47.6057049
 10
-122.3106973
 20
47.605705
 10
-122.3106969
 20
47.6056942
 10
-122.3106426
 20
47.6056951
 10
-122.310643
 20
47.6057061
 10
-122.3104775
 20
47.6057086
 10
-122.3104795
 20
47.6057682
 10
-122.3105038
 20
47.6057678
 10
-122.3105049
 20
47.6058015
 10
-122.3105528
 20
47.6058008
 10
-122.310553
 20
47.6058064
 10
-122.3106971
 20
47.6058041
 10
-122.3106968
 20
47.6057965
 10
-122.310708
 20
47.6057964
 97
0
 75
0
 76
1
 98
0
  0
HATCH
  5
20018
  8
0
100
AcDbEntity
100
AcDbHatch
 10
0
 20
0
 30
0
210
0
220
0
230
1
  2
SOLID
 70
1
 71
0
 91
1
 92
2
 72
0
 73
1
 93
9
 10
-122.3100048
 20
47.6051621
 10
-122.309828
 20
47.6051598
 10
-122.3098259
 20
47.6052372
 10
-122.3098483
 20
47.6052374
 10
-122.3098481
 20
47.6052457
 10
-122.3099538
 20
47.605247
 10
-122.309954
 20
47.6052397
 10
-122.3100026
 20
47.6052403
 10
-122.3100048
 20
47.6051621
 97
0
 75
0
 76
1
 98
0
  0
HATCH
  5
20019
  8
0
100
AcDbEntity
100
AcDbHatch
 10
0
 20
0
 30
0
210
0
220
0
230
1
  2
SOLID
 70
1
 71
0
 91
1
 92
2
 72
0
 73
1
 93
9
 10
-122.3099685
 20
47.6052595
 10
-122.3097576
 20
47.6052574
 10
-122.3097557
 20
47.6053418
 10
-122.3098756
 20
47.605343
 10
-122.3098759
 20
47.6053275
 10
-122.3099053
 20
47.6053278
 10
-122.3099056
 20
47.6053179
 10
-122.3099672
 20
47.6053186
 10
-122.3099685
 20
47.6052595
 97
0
 75
0
 76
1
 98
0
  0
HATCH
  5
2001A
  8
0
100
AcDbEntity
100
AcDbHatch
 10
0
 20
0
 30
0
210
0
220
0
230
1
  2
SOLID
 70
1
 71
0
 91
1
 92
2
 72
0
 73
1
 93
17
 10
-122.3100031
 20
47.6054322
 10
-122.30999
 20
47.6054321
 10
-122.3099908
 20
47.6053874
 10
-122.3098851
 20
47.6053865
 10
-122.3098853
 20
47.6053765
 10
-122.309813
 20
47.6053759
 10
-122.3098124
 20
47.6054094
 10
-122.3097894
 20
47.6054092
 10
-122.309789
 20
47.6054286
 10
-122.3097789
 20
47.6054285
 10
-122.3097786
 20
47.6054449
 10
-122.3098118
 20
47.6054452
 10
-122.3098116
 20
47.60546
 10
-122.3099817
 20
47.6054615
 10
-122.3099819
 20
47.605452
 10
-122.3100027
 20
47.6054522
 10
-122.3100031
 20
47.6054322
 97
0
 75
0
 76
1
 98
0
  0
HATCH
  5
2001B
  8
0
100
AcDbEntity
100
AcDbHatch
 10
0
 20
0
 30
0
210
0
220
0
230
1
  2
SOLID
 70
1
 71
0
 91
1
 92
2
 72
0
 73
1
 93
5
 10
-122.3095962
 20
47.6051028
 10
-122.3095107
 20
47.6051017
 10
-122.3095086
 20
47.605179
 10
-122.3095941
 20
47.60518
 10
-122.3095962
 20
47.6051028
 97
0
 75
0
 76
1
 98
0
  0
HATCH
  5
2001C
  8
0
100
AcDbEntity
100
AcDbHatch
 10
0
 20
0
 30
0
210
0
220
0
230
1
  2
SOLID
 70
1
 71
0
 91
1
 92
2
 72
0
 73
1
 93
5
 10
-122.3096947
 20
47.6054607
 10
-122.3096932
 20
47.6054082
 10
-122.3095991
 20
47.6054094
 10
-122.3096006
 20
47.6054619
 10
-122.3096947
 20
47.6054607
 97
0
 75
0
 76
1
 98
0
  0
HATCH
  5
2001D
  8
0
100
AcDbEntity
100
AcDbHatch
 10
0
 20
0
 30
0
210
0
220
0
230
1
  2
SOLID
 70
1
 71
0
 91
1
 92
2
 72
0
 73
1
 93
17
 10
-122.3099954
 20
47.6055743
 10
-122.3099944
 20
47.6055378
 10
-122.309982
 20
47.6055379
 10
-122.3099808
 20
47.6054985
 10
-122.3099226
 20
47.6054993
 10
-122.3099224
 20
47.6054917
 10
-122.3098459
 20
47.6054927
 10
-122.3098461
 20
47.6054978
 10
-122.3097972
 20
47.6054984
 10
-122.3097975
 20
47.6055091
 10
-122.3097687
 20
47.6055095
 10
-122.3097704
 20
47.6055708
 10
-122.3097956
 20
47.6055705
 10
-122.309796
 20
47.605583
 10
-122.3099765
 20
47.6055807
 10
-122.3099763
 20
47.6055745
 10
-122.3099954
 20
47.6055743
 97
0
 75
0
 76
1
 98
0
  0
HATCH
  5
2001E
  8
0
100
AcDbEntity
100
AcDbHatch
 10
0
 20
0
 30
0
210
0
220
0
230
1
  2
SOLID
 70
1
 71
0
 91
1
 92
2
 72
0
 73
1
 93
15
 10
-122.3100051
 20
47.6056863
 10
-122.3100037
 20
47.6056463
 10
-122.3099855
 20
47.6056466
 10
-122.3099839
 20
47.6056004
 10
-122.3099403
 20
47.605601
 10
-122.3099405
 20
47.6056067
 10
-122.3097941
 20
47.605609
 10
-122.3097965
 20
47.6056809
 10
-122.3098321
 20
47.6056803
 10
-122.3098324
 20
47.6056896
 10
-122.3099422
 20
47.6056878
 10
-122.309942
 20
47.6056804
 10
-122.309982
 20
47.6056798
 10
-122.3099823
 20
47.6056867
 10
-122.3100051
 20
47.6056863
 97
0
 75
0
 76
1
 98
0
  0
HATCH
  5
2001F
  8
0
100
AcDbEntity
100
AcDbHatch
 10
0
 20
0
 30
0
210
0
220
0
230
1
  2
SOLID
 70
1
 71
0
 91
1
 92
2
 72
0
 73
1
 93
21
 10
-122.3100044
 20
47.6057892
 10
-122.3100043
 20
47.6057522
 10
-122.3099976
 20
47.6057522
 10
-122.3099975
 20
47.6057137
 10
-122.3099265
 20
47.6057137
 10
-122.3099131
 20
47.6057046
 10
-122.3098889
 20
47.6057047
 10
-122.3098793
 20
47.6057118
 10
-122.3098222
 20
47.6057119
 10
-122.3098222
 20
47.6057202
 10
-122.3098017
 20
47.6057202
 10
-122.3098017
 20
47.6057405
 10
-122.3097855
 20
47.6057405
 10
-122.3097856
 20
47.6057611
 10
-122.3097986
 20
47.6057611
 10
-122.3097987
 20
47.6057881
 10
-122.3098611
 20
47.6057881
 10
-122.3098611
 20
47.6057959
 10
-122.3099968
 20
47.6057958
 10
-122.3099968
 20
47.6057892
 10
-122.3100044
 20
47.6057892
 97
0
 75
0
 76
1
 98
0
  0
HATCH
  5
20020
  8
0
100
AcDbEntity
100
AcDbHatch
 10
0
 20
0
 30
0
210
0
220
0
230
1
  2
SOLID
 70
1
 71
0
 91
1
 92
2
 72
0
 73
1
 93
5
 10
-122.3096944
 20
47.6054731
 10
-122.3096192
 20
47.605473
 10
-122.3096191
 20
47.6055342
 10
-122.3096943
 20
47.6055343
 10
-122.3096944
 20
47.6054731
 97
0
 75
0
 76
1
 98
0
  0
HATCH
  5
20021
  8
0
100
AcDbEntity
100
AcDbHatch
 10
0
 20
0
 30
0
210
0
220
0
230
1
  2
SOLID
 70
1
 71
0
 91
1
 92
2
 72
0
 73
1
 93
17
 10
-122.3100075
 20
47.60583
 10
-122.3099033
 20
47.6058298
 10
-122.3099033
 20
47.6058229
 10
-122.3098509
 20
47.6058229
 10
-122.3098508
 20
47.6058311
 10
-122.3097893
 20
47.605831
 10
-122.3097892
 20
47.6058467
 10
-122.3097506
 20
47.6058466
 10
-122.3097504
 20
47.6059012
 10
-122.3097881
 20
47.6059013
 10
-122.3097881
 20
47.6059094
 10
-122.3098457
 20
47.6059095
 10
-122.3098457
 20
47.6059165
 10
-122.3098976
 20
47.6059166
 10
-122.3098976
 20
47.6059072
 10
-122.3100073
 20
47.6059074
 10
-122.3100075
 20
47.60583
 97
0
 75
0
 76
1
 98
0
  0
HATCH
  5
20022
  8
0
100
AcDbEntity
100
AcDbHatch
 10
0
 20
0
 30
0
210
0
220
0
230
1
  2
SOLID
 70
1
 71
0
 91
1
 92
2
 72
0
 73
1
 93
5
 10
-122.3096773
 20
47.6058547
 10
-122.3096762
 20
47.605796
 10
-122.3096241
 20
47.6057964
 10
-122.3096251
 20
47.6058551
 10
-122.3096773
 20
47.6058547
 97
0
 75
0
 76
1
 98
0
  0
HATCH
  5
20023
  8
0
100
AcDbEntity
100
AcDbHatch
 10
0
 20
0
 30
0
210
0
220
0
230
1
  2
SOLID
 70
1
 71
0
 91
1
 92
2
 72
0
 73
1
 93
13
 10
-122.3094094
 20
47.6053365
 10
-122.309408
 20
47.605277
 10
-122.3093784
 20
47.6052773
 10
-122.3093781
 20
47.6052651
 10
-122.3093283
 20
47.6052656
 10
-122.3093281
 20
47.6052591
 10
-122.3091721
 20
47.6052607
 10
-122.3091743
 20
47.6053547
 10
-122.3093305
 20
47.6053531
 10
-122.3093304
 20
47.6053493
 10
-122.3093759
 20
47.6053489
 10
-122.3093756
 20
47.6053369
 10
-122.3094094
 20
47.6053365
 97
0
 75
0
 76
1
 98
0
  0
HATCH
  5
20024
  8
0
100
AcDbEntity
100
AcDbHatch
 10
0
 20
0
 30
0
210
0
220
0
230
1
  2
SOLID
 70
1
 71
0
 91
1
 92
2
 72
0
 73
1
 93
5
 10
-122.3093239
 20
47.6054403
 10
-122.3093229
 20
47.6053738
 10
-122.3091845
 20
47.6053748
 10
-122.3091855
 20
47.6054413
 10
-122.3093239
 20
47.6054403
 97
0
 75
0
 76
1
 98
0
  0
HATCH
  5
20025
  8
0
100
AcDbEntity
100
AcDbHatch
 10
0
 20
0
 30
0
210
0
220
0
230
1
  2
SOLID
 70
1
 71
0
 91
1
 92
2
 72
0
 73
1
 93
49
 10
-122.309502
 20
47.6055835
 10
-122.3094841
 20
47.6055834
 10
-122.3094841
 20
47.6055784
 10
-122.3093535
 20
47.6055781
 10
-122.3093536
 20
47.6055563
 10
-122.3093286
 20
47.6055562
 10
-122.3093286
 20
47.605551
 10
-122.3091963
 20
47.6055508
 10
-122.3091963
 20
47.6055579
 10
-122.3091806
 20
47.6055578
 10
-122.3091804
 20
47.6055964
 10
-122.3091975
 20
47.6055964
 10
-122.3091975
 20
47.6056023
 10
-122.3093271
 20
47.6056026
 10
-122.3093271
 20
47.6056156
 10
-122.3092628
 20
47.6056155
 10
-122.3092627
 20
47.6056418
 10
-122.3093263
 20
47.6056419
 10
-122.309326
 20
47.6057251
 10
-122.309196
 20
47.6057248
 10
-122.309196
 20
47.6057304
 10
-122.3091794
 20
47.6057304
 10
-122.3091782
 20
47.606031
 10
-122.3091935
 20
47.606031
 10
-122.3091934
 20
47.6060355
 10
-122.3093218
 20
47.6060357
 10
-122.3093218
 20
47.6060469
 10
-122.3093493
 20
47.6060469
 10
-122.3093493
 20
47.6060525
 10
-122.3094811
 20
47.6060527
 10
-122.3094811
 20
47.6060469
 10
-122.3094975
 20
47.6060469
 10
-122.3094976
 20
47.6060174
 10
-122.3094809
 20
47.6060173
 10
-122.309481
 20
47.6060114
 10
-122.3093511
 20
47.6060112
 10
-122.3093511
 20
47.605999
 10
-122.3094166
 20
47.6059991
 10
-122.3094167
 20
47.6059689
 10
-122.3093546
 20
47.6059688
 10
-122.3093549
 20
47.6059129
 10
-122.3093752
 20
47.605913
 10
-122.3093755
 20
47.6058407
 10
-122.3093523
 20
47.6058407
 10
-122.3093526
 20
47.6057503
 10
-122.309484
 20
47.6057505
 10
-122.309484
 20
47.6057445
 10
-122.3095014
 20
47.6057445
 10
-122.309502
 20
47.6055835
 97
0
 75
0
 76
1
 98
0
  0
ENDSEC
  0
SECTION
  2
OBJECTS
  0
DICTIONARY
  5
C
330
0
100
AcDbDictionary
281
     1
  3
ACAD_GROUP
350
D
  3
ACAD_LAYOUT
350
1A
  3
ACAD_MLEADERSTYLE
350
43
  3
ACAD_MLINESTYLE
350
17
  3
ACAD_PLOTSETTINGS
350
19
  3
ACAD_PLOTSTYLENAME
350
E
  3
ACAD_TABLESTYLE
350
42
  3
ACAD_VISUALSTYLE
350
2A
  0
DICTIONARY
  5
D
102
{ACAD_REACTORS
330
C
102
}
330
C
100
AcDbDictionary
281
     1
  0
DICTIONARY
  5
1A
102
{ACAD_REACTORS
330
C
102
}
330
C
100
AcDbDictionary
281
     1
  3
Layout1
350
1E
  3
Layout2
350
26
  3
Model
350
22
  0
DICTIONARY
  5
43
102
{ACAD_REACTORS
330
C
102
}
330
C
100
AcDbDictionary
281
     1
  0
DICTIONARY
  5
17
102
{ACAD_REACTORS
330
C
102
}
330
C
100
AcDbDictionary
281
     1
  3
Standard
350
18
  0
DICTIONARY
  5
19
102
{ACAD_REACTORS
330
C
102
}
330
C
100
AcDbDictionary
281
     1
  0
ACDBDICTIONARYWDFLT
  5
E
102
{ACAD_REACTORS
330
C
102
}
330
C
100
AcDbDictionary
281
     1
  3
Normal
350
F
100
AcDbDictionaryWithDefault
340
F
  0
DICTIONARY
  5
42
102
{ACAD_REACTORS
330
C
102
}
330
C
100
AcDbDictionary
281
     1
  0
DICTIONARY
  5
2A
102
{ACAD_REACTORS
330
C
102
}
330
C
100
AcDbDictionary
281
     1
  3
2dWireframe
350
2F
  3
3D Hidden
350
31
  3
3dWireframe
350
30
  3
Basic
350
32
  3
Brighten
350
36
  3
ColorChange
350
3A
  3
Conceptual
350
34
  3
Dim
350
35
  3
Facepattern
350
39
  3
Flat
350
2B
  3
FlatWithEdges
350
2C
  3
Gouraud
350
2D
  3
GouraudWithEdges
350
2E
  3
Linepattern
350
38
  3
Realistic
350
33
  3
Thicken
350
37
  0
LAYOUT
  5
1E
102
{ACAD_REACTORS
330
1A
102
}
330
1A
100
AcDbPlotSettings
  1

  2
none_device
  4

  6

 40
0.0
 41
0.0
 42
0.0
 43
0.0
 44
0.0
 45
0.0
 46
0.0
 47
0.0
 48
0.0
 49
0.0
140
0.0
141
0.0
142
1.0
143
1.0
 70
   688
 72
     0
 73
     0
 74
     5
  7

 75
    16
 76
     0
 77
     2
 78
   300
147
1.0
148
0.0
149
0.0
100
AcDbLayout
  1
Layout1
 70
     1
 71
     1
 10
0.0
 20
0.0
 11
12.0
 21
9.0
 12
0.0
 22
0.0
 32
0.0
 14
1.000000000000000E+20
 24
1.000000000000000E+20
 34
1.000000000000000E+20
 15
-1.000000000000000E+20
 25
-1.000000000000000E+20
 35
-1.000000000000000E+20
146
0.0
 13
0.0
 23
0.0
 33
0.0
 16
1.0
 26
0.0
 36
0.0
 17
0.0
 27
1.0
 37
0.0
 76
     0
330
1B
  0
LAYOUT
  5
26
102
{ACAD_REACTORS
330
1A
102
}
330
1A
100
AcDbPlotSettings
  1

  2
none_device
  4

  6

 40
0.0
 41
0.0
 42
0.0
 43
0.0
 44
0.0
 45
0.0
 46
0.0
 47
0.0
 48
0.0
 49
0.0
140
0.0
141
0.0
142
1.0
143
1.0
 70
   688
 72
     0
 73
     0
 74
     5
  7

 75
    16
 76
     0
 77
     2
 78
   300
147
1.0
148
0.0
149
0.0
100
AcDbLayout
  1
Layout2
 70
     1
 71
     2
 10
0.0
 20
0.0
 11
0.0
 21
0.0
 12
0.0
 22
0.0
 32
0.0
 14
0.0
 24
0.0
 34
0.0
 15
0.0
 25
0.0
 35
0.0
146
0.0
 13
0.0
 23
0.0
 33
0.0
 16
1.0
 26
0.0
 36
0.0
 17
0.0
 27
1.0
 37
0.0
 76
     0
330
23
  0
LAYOUT
  5
22
102
{ACAD_REACTORS
330
1A
102
}
330
1A
100
AcDbPlotSettings
  1

  2
none_device
  4

  6

 40
0.0
 41
0.0
 42
0.0
 43
0.0
 44
0.0
 45
0.0
 46
0.0
 47
0.0
 48
0.0
 49
0.0
140
0.0
141
0.0
142
1.0
143
1.0
 70
  1712
 72
     0
 73
     0
 74
     0
  7

 75
     0
 76
     0
 77
     2
 78
   300
147
1.0
148
0.0
149
0.0
100
AcDbLayout
  1
Model
 70
     1
 71
     0
 10
0.0
 20
0.0
 11
12.0
 21
9.0
 12
0.0
 22
0.0
 32
0.0
 14
30.0
 24
49.75
 34
0.0
 15
130.5
 25
163.1318914119703
 35
0.0
146
0.0
 13
0.0
 23
0.0
 33
0.0
 16
1.0
 26
0.0
 36
0.0
 17
0.0
 27
1.0
 37
0.0
 76
     0
330
1F
331
29
  0
MLINESTYLE
  5
18
102
{ACAD_REACTORS
330
17
102
}
330
17
100
AcDbMlineStyle
  2
Standard
 70
     0
  3

 62
   256
 51
90.0
 52
90.0
 71
     2
 49
0.5
 62
   256
  6
BYLAYER
 49
-0.5
 62
   256
  6
BYLAYER
  0
ACDBPLACEHOLDER
  5
F
102
{ACAD_REACTORS
330
E
102
}
330
E
  0
VISUALSTYLE
  5
2F
102
{ACAD_REACTORS
330
2A
102
}
330
2A
100
AcDbVisualStyle
  2
2dWireframe
 70
     4
 71
     0
 72
     2
 73
     0
 90
        0
 40
-0.6
 41
-30.0
 62
     5
 63
     7
421
 16777215
 74
     1
 91
        4
 64
     7
 65
   257
 75
     1
175
     1
 42
1.0
 92
        0
 66
   257
 43
1.0
 76
     1
 77
     6
 78
     2
 67
     7
 79
     5
170
     0
171
     0
290
     0
174
     0
 93
        1
 44
0.0
173
     0
291
     0
 45
0.0
1001
ACAD
1000
AcDbSavedByObjectVersion
1070
     0
  0
VISUALSTYLE
  5
31
102
{ACAD_REACTORS
330
2A
102
}
330
2A
100
AcDbVisualStyle
  2
3D Hidden
 70
     6
 71
     1
 72
     2
 73
     2
 90
        0
 40
-0.6
 41
-30.0
 62
     5
 63
     7
421
 16777215
 74
     2
 91
        2
 64
     7
 65
   257
 75
     2
175
     1
 42
40.0
 92
        0
 66
   257
 43
1.0
 76
     1
 77
     6
 78
     2
 67
     7
 79
     3
170
     0
171
     0
290
     0
174
     0
 93
        1
 44
0.0
173
     0
291
     0
 45
0.0
1001
ACAD
1000
AcDbSavedByObjectVersion
1070
     0
  0
VISUALSTYLE
  5
30
102
{ACAD_REACTORS
330
2A
102
}
330
2A
100
AcDbVisualStyle
  2
3dWireframe
 70
     5
 71
     0
 72
     2
 73
     0
 90
        0
 40
-0.6
 41
-30.0
 62
     5
 63
     7
421
 16777215
 74
     1
 91
        4
 64
     7
 65
   257
 75
     1
175
     1
 42
1.0
 92
        0
 66
   257
 43
1.0
 76
     1
 77
     6
 78
     2
 67
     7
 79
     5
170
     0
171
     0
290
     0
174
     0
 93
        1
 44
0.0
173
     0
291
     0
 45
0.0
1001
ACAD
1000
AcDbSavedByObjectVersion
1070
     0
  0
VISUALSTYLE
  5
32
102
{ACAD_REACTORS
330
2A
102
}
330
2A
100
AcDbVisualStyle
  2
Basic
 70
     7
 71
     1
 72
     0
 73
     1
 90
        0
 40
-0.6
 41
-30.0
 62
     5
 63
     7
421
 16777215
 74
     0
 91
        4
 64
     7
 65
   257
 75
     1
175
     1
 42
1.0
 92
        8
 66
     7
 43
1.0
 76
     1
 77
     6
 78
     2
 67
     7
 79
     5
170
     0
171
     0
290
     0
174
     0
 93
        1
 44
0.0
173
     0
291
     1
 45
0.0
1001
ACAD
1000
AcDbSavedByObjectVersion
1070
     0
  0
VISUALSTYLE
  5
36
102
{ACAD_REACTORS
330
2A
102
}
330
2A
100
AcDbVisualStyle
  2
Brighten
 70
    12
 71
     2
 72
     2
 73
     0
 90
        0
 40
-0.6
 41
-30.0
 62
     5
 63
     7
421
 16777215
 74
     1
 91
        4
 64
     7
 65
   257
 75
     1
175
     1
 42
1.0
 92
        8
 66
     7
 43
1.0
 76
     1
 77
     6
 78
     2
 67
     7
 79
     5
170
     0
171
     0
290
     0
174
     0
 93
        1
 44
50.0
173
     0
291
     1
 45
0.0
1001
ACAD
1000
AcDbSavedByObjectVersion
1070
     0
  0
VISUALSTYLE
  5
3A
102
{ACAD_REACTORS
330
2A
102
}
330
2A
100
AcDbVisualStyle
  2
ColorChange
 70
    16
 71
     2
 72
     2
 73
     3
 90
        0
 40
-0.6
 41
-30.0
 62
     5
 63
     8
421
  8421504
 74
     1
 91
        4
 64
     7
 65
   257
 75
     1
175
     1
 42
1.0
 92
        8
 66
     8
424
  8421504
 43
1.0
 76
     1
 77
     6
 78
     2
 67
     7
 79
     5
170
     0
171
     0
290
     0
174
     0
 93
        1
 44
0.0
173
     0
291
     1
 45
0.0
1001
ACAD
1000
AcDbSavedByObjectVersion
1070
     0
  0
VISUALSTYLE
  5
34
102
{ACAD_REACTORS
330
2A
102
}
330
2A
100
AcDbVisualStyle
  2
Conceptual
 70
     9
 71
     3
 72
     2
 73
     0
 90
        0
 40
-0.6
 41
-30.0
 62
     5
 63
     7
421
 16777215
 74
     2
 91
        2
 64
     7
 65
   257
 75
     1
175
     1
 42
40.0
 92
        8
 66
     7
 43
1.0
 76
     1
 77
     6
 78
     2
 67
     7
 79
     3
170
     0
171
     0
290
     0
174
     0
 93
        1
 44
0.0
173
     0
291
     0
 45
0.0
1001
ACAD
1000
AcDbSavedByObjectVersion
1070
     0
  0
VISUALSTYLE
  5
35
102
{ACAD_REACTORS
330
2A
102
}
330
2A
100
AcDbVisualStyle
  2
Dim
 70
    11
 71
     2
 72
     2
 73
     0
 90
        0
 40
-0.6
 41
-30.0
 62
     5
 63
     7
421
 16777215
 74
     1
 91
        4
 64
     7
 65
   257
 75
     1
175
     1
 42
1.0
 92
        8
 66
     7
 43
1.0
 76
     1
 77
     6
 78
     2
 67
     7
 79
     5
170
     0
171
     0
290
     0
174
     0
 93
        1
 44
-50.0
173
     0
291
     1
 45
0.0
1001
ACAD
1000
AcDbSavedByObjectVersion
1070
     0
  0
VISUALSTYLE
  5
39
102
{ACAD_REACTORS
330
2A
102
}
330
2A
100
AcDbVisualStyle
  2
Facepattern
 70
    15
 71
     2
 72
     2
 73
     0
 90
        0
 40
-0.6
 41
-30.0
 62
     5
 63
     7
421
 16777215
 74
     1
 91
        4
 64
     7
 65
   257
 75
     1
175
     1
 42
1.0
 92
        8
 66
     7
 43
1.0
 76
     1
 77
     6
 78
     2
 67
     7
 79
     5
170
     0
171
     0
290
     0
174
     0
 93
        1
 44
0.0
173
     0
291
     1
 45
0.0
1001
ACAD
1000
AcDbSavedByObjectVersion
1070
     0
  0
VISUALSTYLE
  5
2B
102
{ACAD_REACTORS
330
2A
102
}
330
2A
100
AcDbVisualStyle
  2
Flat
 70
     0
 71
     2
 72
     1
 73
     1
 90
        2
 40
-0.6
 41
30.0
 62
     5
 63
     7
421
 16777215
 74
     0
 91
        4
 64
     7
 65
   257
 75
     1
175
     1
 42
1.0
 92
        8
 66
     7
 43
1.0
 76
     1
 77
     6
 78
     2
 67
     7
 79
     5
170
     0
171
     0
290
     0
174
     0
 93
       13
 44
0.0
173
     0
291
     1
 45
0.0
1001
ACAD
1000
AcDbSavedByObjectVersion
1070
     0
  0
VISUALSTYLE
  5
2C
102
{ACAD_REACTORS
330
2A
102
}
330
2A
100
AcDbVisualStyle
  2
FlatWithEdges
 70
     1
 71
     2
 72
     1
 73
     1
 90
        2
 40
-0.6
 41
30.0
 62
     5
 63
     7
421
 16777215
 74
     1
 91
        4
 64
     7
 65
   257
 75
     1
175
     1
 42
1.0
 92
        0
 66
   257
 43
1.0
 76
     1
 77
     6
 78
     2
 67
     7
 79
     5
170
     0
171
     0
290
     0
174
     0
 93
       13
 44
0.0
173
     0
291
     1
 45
0.0
1001
ACAD
1000
AcDbSavedByObjectVersion
1070
     0
  0
VISUALSTYLE
  5
2D
102
{ACAD_REACTORS
330
2A
102
}
330
2A
100
AcDbVisualStyle
  2
Gouraud
 70
     2
 71
     2
 72
     2
 73
     1
 90
        2
 40
-0.6
 41
30.0
 62
     5
 63
     7
421
 16777215
 74
     0
 91
        4
 64
     7
 65
   257
 75
     1
175
     1
 42
1.0
 92
        0
 66
     7
 43
1.0
 76
     1
 77
     6
 78
     2
 67
     7
 79
     5
170
     0
171
     0
290
     0
174
     0
 93
       13
 44
0.0
173
     0
291
     1
 45
0.0
1001
ACAD
1000
AcDbSavedByObjectVersion
1070
     0
  0
VISUALSTYLE
  5
2E
102
{ACAD_REACTORS
330
2A
102
}
330
2A
100
AcDbVisualStyle
  2
GouraudWithEdges
 70
     3
 71
     2
 72
     2
 73
     1
 90
        2
 40
-0.6
 41
30.0
 62
     5
 63
     7
421
 16777215
 74
     1
 91
        4
 64
     7
 65
   257
 75
     1
175
     1
 42
1.0
 92
        0
 66
   257
 43
1.0
 76
     1
 77
     6
 78
     2
 67
     7
 79
     5
170
     0
171
     0
290
     0
174
     0
 93
       13
 44
0.0
173
     0
291
     1
 45
0.0
1001
ACAD
1000
AcDbSavedByObjectVersion
1070
     0
  0
VISUALSTYLE
  5
38
102
{ACAD_REACTORS
330
2A
102
}
330
2A
100
AcDbVisualStyle
  2
Linepattern
 70
    14
 71
     2
 72
     2
 73
     0
 90
        0
 40
-0.6
 41
-30.0
 62
     5
 63
     7
421
 16777215
 74
     1
 91
        4
 64
     7
 65
   257
 75
     7
175
     7
 42
1.0
 92
        8
 66
     7
 43
1.0
 76
     1
 77
     6
 78
     2
 67
     7
 79
     5
170
     0
171
     0
290
     0
174
     0
 93
        1
 44
0.0
173
     0
291
     1
 45
0.0
1001
ACAD
1000
AcDbSavedByObjectVersion
1070
     0
  0
VISUALSTYLE
  5
33
102
{ACAD_REACTORS
330
2A
102
}
330
2A
100
AcDbVisualStyle
  2
Realistic
 70
     8
 71
     2
 72
     2
 73
     0
 90
        0
 40
-0.6
 41
-30.0
 62
     5
 63
     7
421
 16777215
 74
     1
 91
        0
 64
     7
 65
   257
 75
     1
175
     1
 42
1.0
 92
        8
 66
     8
424
  7895160
 43
1.0
 76
     1
 77
     6
 78
     2
 67
     7
 79
     5
170
     0
171
     0
290
     0
174
     0
 93
       13
 44
0.0
173
     0
291
     0
 45
0.0
1001
ACAD
1000
AcDbSavedByObjectVersion
1070
     0
  0
VISUALSTYLE
  5
37
102
{ACAD_REACTORS
330
2A
102
}
330
2A
100
AcDbVisualStyle
  2
Thicken
 70
    13
 71
     2
 72
     2
 73
     0
 90
        0
 40
-0.6
 41
-30.0
 62
     5
 63
     7
421
 16777215
 74
     1
 91
        4
 64
     7
 65
   257
 75
     1
175
     1
 42
1.0
 92
       12
 66
     7
 43
1.0
 76
     1
 77
     6
 78
     2
 67
     7
 79
     5
170
     0
171
     0
290
     0
174
     0
 93
        1
 44
0.0
173
     0
291
     1
 45
0.0
1001
ACAD
1000
AcDbSavedByObjectVersion
1070
     0
  0
ENDSEC
  0
EOF
