<?xml version="1.0" encoding="UTF-8" standalone="no"?>
<!DOCTYPE svg PUBLIC "-//W3C//DTD SVG 1.1//EN" "http://www.w3.org/Graphics/SVG/1.1/DTD/svg11.dtd">
<svg width="318.75pt" height="212.25pt" viewBox="0 0 318.75 212.25" overflow="visible" version="1.1" xmlns="http://www.w3.org/2000/svg">
  <rect x="0" y="0" width="318" height="212" stroke="" stroke-width="0" fill="#FFFFFF" fill-opacity="1.0" />
  <path d="M71.08855,149.2774 L78.39728,149.3569 L78.40523,149.0229 L79.35958,149.0308 L79.48682,143.4877 L78.11097,143.4717 L78.11893,143.1934 L67.11208,143.0741 L67.10413,143.3286 L63.93092,143.2968 L63.91501,143.8694 L61.15535,143.8455 L61.04401,148.5219 L67.68469,148.5934 L67.65289,149.9295 L71.07264,149.9693 z" stroke="#000000" stroke-width="0.75" fill-opacity="0" />
  <path d="M97.28004,67.65635 L85.6433,67.62215 L85.6319,70.34613 L84.41238,70.33473 L84.38959,73.28666 L86.23597,73.28666 L86.22457,75.19003 L110.1021,75.25841 L110.1591,67.38281 L97.29144,67.33722 z" stroke="#000000" stroke-width="0.75" fill-opacity="0" />
  <path d="M175.4376,47.90707 L175.4538,47.23554 L166.9019,47.13036 L166.8857,47.72098 L162.9537,47.67244 L162.7757,53.99938 L177.08,54.18546 L177.25,47.92325 z" stroke="#000000" stroke-width="0.75" fill-opacity="0" />
  <path d="M173.2046,40.61733 L170.8259,40.59306 L170.8017,41.39404 L165.8178,41.33741 L165.7126,46.11902 L182.7759,46.28893 L182.9296,39.46036 L173.2289,39.36327 z" stroke="#000000" stroke-width="0.75" fill-opacity="0" />
  <path d="M94.01694,130.8983 L94.05322,128.7021 L90.32262,128.704 L90.27074,130.9164 L89.68203,130.9121 L89.52067,138.0663 L103.6557,138.0663 L103.8327,130.8959 z" stroke="#000000" stroke-width="0.75" fill-opacity="0" />
  <path d="M93.48471,63.4963 L95.43366,64.65884 L100.9044,64.64744 L102.7508,63.58748 L108.1418,63.56468 L110.6492,62.10582 L110.615,57.18214 L108.4609,55.73467 L108.4609,54.52655 L84.82269,54.60633 L84.82269,55.40415 L78.79346,55.42694 L78.83906,62.42494 L87.79741,62.40215 L89.5754,63.50769 z" stroke="#000000" stroke-width="0.75" fill-opacity="0" />
  <path d="M107.5527,153.7072 L107.5845,154.7251 L112.4835,154.6456 L112.4119,152.6971 L114.6387,152.6653 L114.4479,147.4243 L111.3224,147.48 L111.3064,147.0188 L108.2605,147.0744 L108.2764,147.4164 L98.34319,147.5834 L98.43068,150.0409 L95.73463,150.0886 L95.83803,152.7528 L100.8722,152.6733 L100.9199,153.8185 z" stroke="#000000" stroke-width="0.75" fill-opacity="0" />
  <path d="M67.98691,134.7713 L67.95509,133.0137 L61.30645,133.0614 L61.44961,141.563 L79.44706,141.4199 L79.33572,134.6838 z" stroke="#000000" stroke-width="0.75" fill-opacity="0" />
  <path d="M195.8343,58.79717 L202.7519,58.88617 L202.9218,52.63205 L196.0042,52.55114 z" stroke="#000000" stroke-width="0.75" fill-opacity="0" />
  <path d="M116.5951,134.0555 L106.2086,134.0157 L106.1211,143.5433 L109.016,143.5513 L109.016,144.2114 L114.9727,144.2352 L114.9807,143.7103 L116.5077,143.7103 z" stroke="#000000" stroke-width="0.75" fill-opacity="0" />
  <path d="M63.40699,52.66877 L74.40547,52.62318 L74.37128,48.50873 L63.3614,48.55432 z" stroke="#000000" stroke-width="0.75" fill-opacity="0" />
  <path d="M194.7121,55.42175 L194.7121,52.65715 L192.2497,52.65715 L192.209,55.38439 z" stroke="#000000" stroke-width="0.75" fill-opacity="0" />
  <path d="M176.2467,62.93962 L176.2143,60.00269 L179.4992,59.98651 L179.4749,57.22757 L176.3519,57.24376 L176.3438,56.39423 L164.855,56.44277 L164.9197,62.98816 z" stroke="#000000" stroke-width="0.75" fill-opacity="0" />
  <path d="M97.62196,43.91558 L88.07095,43.96117 L88.07095,43.3685 L79.34055,43.3913 L79.37473,46.95868 L82.41784,48.37196 L82.45203,51.76838 L108.0506,51.6772 L108.0392,51.31248 L110.9455,51.30109 L110.8885,44.00676 L101.839,44.04095 L101.839,43.53946 L97.62196,43.55086 z" stroke="#000000" stroke-width="0.75" fill-opacity="0" />
  <path d="M63.40699,66.01578 L114.2778,66.01578 L114.2778,53.01941 L63.40699,53.01941 z" stroke="#0000FF" stroke-width="0.75" fill-opacity="0" />
  <path d="M153.3314,55.56316 L195.0277,55.56316 L195.0277,46.70016 L153.3314,46.70016 z" stroke="#0000FF" stroke-width="0.75" fill-opacity="0" />
  <path d="M85.97505,146.2792 L104.9271,146.2792 L104.9271,126.2403 L85.97505,126.2403 z" stroke="#0000FF" stroke-width="0.75" fill-opacity="0" />
  <path d="M160.1648,71.19962 C159.0946,71.09113 157.8815,72.30425 157.99,73.37437 C157.8815,74.4445 159.0946,75.65762 160.1648,75.54913 C161.2349,75.65762 162.448,74.4445 162.3395,73.37437 C162.448,72.30425 161.2349,71.09113 160.1648,71.19962 z" stroke="#000000" stroke-width="0.75" fill-opacity="0" />
  <path d="M70.85775,84.10106 C69.78763,83.99257 68.57451,85.20569 68.683,86.27581 C68.57451,87.34594 69.78763,88.55906 70.85775,88.45057 C71.92788,88.55906 73.14099,87.34594 73.03251,86.27581 C73.14099,85.20569 71.92788,83.99257 70.85775,84.10106 z" stroke="#000000" stroke-width="0.75" fill-opacity="0" />
  <path d="M70.85775,162.4592 C69.78763,162.3507 68.57451,163.5638 68.683,164.6339 C68.57451,165.7041 69.78763,166.9172 70.85775,166.8087 C71.92788,166.9172 73.14099,165.7041 73.03251,164.6339 C73.14099,163.5638 71.92788,162.3507 70.85775,162.4592 z" stroke="#000000" stroke-width="0.75" fill-opacity="0" />
  <text x="138.954916853704" y="106.496147746846" font-family="Arial" font-size="3.995678">10, 20, 50, 100'</text>
  <path d="M87.61409,139.2035 L87.61409,145.2959 L99.68246,145.2959 L99.68246,139.2035 z" stroke="#FB0207" stroke-width="0.75" fill-opacity="0" />
  <path d="M66.0294,54.65845 L66.0294,64.37688 L77.17738,64.37688 L77.17738,54.65845 z" stroke="#FB0207" stroke-width="0.75" fill-opacity="0" />
  <path d="M180.443,48.04737 L180.443,54.03526 L189.7831,54.03526 L189.7831,48.04737 z" stroke="#FB0207" stroke-width="0.75" fill-opacity="0" />
  <path d="M85.00513,28.70013 L85.1077,36.40477 L89.57548,36.37058 L89.62107,39.3111 L95.80984,39.26551 L95.77566,36.65551 L108.7573,36.57573 L108.6775,31.00241 L109.6235,31.00241 L109.5893,28.17585 L107.7201,28.18725 L107.7087,27.0931 L93.27963,27.18428 L93.30242,28.22144 L90.88618,28.23284 L90.89758,28.66594 z" stroke="#000000" stroke-width="0.75" fill-opacity="0" />
  <path d="M75.25552,87.82647 L75.25552,84.72531 L78.53887,84.72531 L78.53887,87.82647 L81.82221,87.82647 L81.82221,84.72531 L91.67225,84.72531 L91.67225,87.82647 L108.089,87.82647 L108.089,84.72531" stroke="#000000" stroke-width="0.75" fill-opacity="0" />
  <path d="M75.25552,166.1846 L75.25552,163.0834 L78.53887,163.0834 L78.53887,166.1846 L81.82221,166.1846 L81.82221,163.0834 L91.67225,163.0834 L91.67225,166.1846 L108.089,166.1846 L108.089,163.0834" stroke="#000000" stroke-width="0.75" fill-opacity="0" />
  <path d="M164.5625,74.92503 L164.5625,71.82387 L167.8459,71.82387 L167.8459,74.92503 L171.1292,74.92503 L171.1292,71.82387 L180.9793,71.82387 L180.9793,74.92503 L197.396,74.92503 L197.396,71.82387" stroke="#000000" stroke-width="0.75" fill-opacity="0" />
  <path d="M157.9901,73.37445 L162.3396,73.37445" stroke="#000000" stroke-width="0.75" fill-opacity="0" />
  <path d="M160.1648,71.1997 L160.1648,75.54921" stroke="#000000" stroke-width="0.75" fill-opacity="0" />
  <path d="M70.85783,84.10114 L70.85783,88.45065" stroke="#000000" stroke-width="0.75" fill-opacity="0" />
  <path d="M70.85783,86.27589 L70.85783,83.60248" stroke="#000000" stroke-width="0.75" fill-opacity="0" />
  <path d="M74.38828,86.27589 L108.9562,86.27589" stroke="#000000" stroke-width="0.75" fill-opacity="0" />
  <path d="M74.38828,164.634 L108.9562,164.634" stroke="#000000" stroke-width="0.75" fill-opacity="0" />
  <path d="M70.85783,164.634 L70.85783,161.9606 L70.85783,166.8088" stroke="#000000" stroke-width="0.75" fill-opacity="0" />
  <path d="M68.68307,164.634 L73.03259,164.634" stroke="#000000" stroke-width="0.75" fill-opacity="0" />
  <path d="M68.68307,86.27589 L73.03259,86.27589" stroke="#000000" stroke-width="0.75" fill-opacity="0" />
  <path d="M160.1648,73.37445 L160.1648,70.70104" stroke="#000000" stroke-width="0.75" fill-opacity="0" />
  <path d="M163.6953,73.37445 L198.2632,73.37445" stroke="#000000" stroke-width="0.75" fill-opacity="0" />
</svg>